Genre:Action | Sci-Fi 
Language:English
IMDb:http://www.imdb.com/title/tt1328910/
Source:DVD 
Encoder: Tony2
............................................
General
Complete name : Chrome.Angels.2009.DVDRiP.XviD.FEEL-FREE
Format : AVI
Format/Info : Audio Video Interleave
File size : 857 MiB
Duration : 1h 29mn
Overall bit rate : 1 339 Kbps
.............................................
Video
Format : xvid
Codec ID : xvid
Duration : 1h 29mn
Bit rate : 1 198 Kbps
Width : 684 pixels
Height : 302 pixels
Display aspect ratio : 2.25:1
Frame rate : 25.000 fps
Resolution : 24 bits
Bits/(Pixel*Frame) : 0.232
Stream size : 767 MiB (89%)
..............................................
Audio
ID : 1
Format : MPEG Audio
Format version : Version 1
Format profile : Layer 3
Format settings, Mode : Joint stereo / MS Stereo
Codec ID : 55
Codec ID/Hint : MP3
Duration : 1h 29mn
Bit rate mode : Constant
Bit rate : 128 Kbps
Channel(s) : 2 channels
Sampling rate : 48.0 KHz
Resolution : 16 bits
Stream size : 82.0 MiB (10%)
Alignment : Aligned on interleaves
Interleave, duration : 24 ms (0.60 video frame)
Interleave, preload duration : 24 ms
.................................................

Screenshots
 
http://postimg.com/image/19000/18285.jpg
 
http://postimg.com/image/19000/18286.jpg
 
http://postimg.com/image/19000/18287.jpg

.......................................................

 
http://www.imdb.com/title/tt1328910/


...............................................................